<svg width="38" height="38" viewBox="0 0 38 38" fill="none" xmlns="http://www.w3.org/2000/svg">
<path fill-rule="evenodd" clip-rule="evenodd" d="M19 36C28.3888 36 36 28.3888 36 19C36 9.61116 28.3888 2 19 2C9.61116 2 2 9.61116 2 19C2 28.3888 9.61116 36 19 36Z" stroke="#BBE1FF" stroke-width="4"/>
<path d="M17.8 15.624H19.96V27H17.8V15.624ZM17.296 11.544C17.296 11.112 17.448 10.744 17.752 10.44C18.072 10.12 18.448 9.96 18.88 9.96C19.312 9.96 19.68 10.12 19.984 10.44C20.304 10.744 20.464 11.112 20.464 11.544C20.464 11.976 20.304 12.352 19.984 12.672C19.68 12.976 19.312 13.128 18.88 13.128C18.448 13.128 18.072 12.976 17.752 12.672C17.448 12.352 17.296 11.976 17.296 11.544Z" fill="#3F4089"/>
</svg>
