<?xml version="1.0" encoding="UTF-8"?>
<svg width="334px" height="334px" viewBox="0 0 334 334" version="1.1" xmlns="http://www.w3.org/2000/svg" xmlns:xlink="http://www.w3.org/1999/xlink">
    <title>Logo</title>
    <defs>
        <radialGradient cx="76.2960788%" cy="-89.6378496%" fx="76.2960788%" fy="-89.6378496%" r="130.621974%" id="radialGradient-1">
            <stop stop-color="#FFFFFF" offset="0%"></stop>
            <stop stop-color="#3F4089" offset="100%"></stop>
        </radialGradient>
        <path d="M75.465043,305.229095 C99.2084999,324.409698 130.056022,334 168.00761,334 C205.959086,334 236.813174,324.409755 260.569873,305.229264 C260.999566,304.882318 261.066667,304.252731 260.719735,303.823026 C260.529892,303.58789 260.243895,303.45122 259.941687,303.45122 L76.0934319,303.45122 C75.5411573,303.451238 75.0934503,303.898945 75.0934503,304.45122 C75.0934503,304.753331 75.2300334,305.039248 75.465043,305.229095 Z M297.398004,63.1341463 L271.824781,88.5829635 C288.347441,110.421007 298.125739,137.573211 298.125739,167 C298.125739,193.275011 290.326675,217.744635 276.898426,238.226088 C268.679121,250.761798 258.357583,261.808319 246.426829,270.865854 L297.398004,270.865854 C305.445113,260.869925 312.352446,249.925404 317.938581,238.226088 C328.239619,216.632843 334,192.489617 334,167 C334,127.699682 320.307307,91.5919419 297.398004,63.1341463 L297.398004,63.1341463 Z M16.0723176,238.226088 C21.6470473,249.925404 28.5562682,260.869925 36.6011391,270.865854 L62.1737636,245.417037 C60.4016166,243.081253 58.710441,240.684271 57.1115114,238.226088 C43.6743528,217.734435 35.8734211,193.275011 35.8734211,167 C35.8734211,124.639704 56.1480538,86.981575 87.5731707,63.1341463 L36.6011391,63.1341463 C13.6944223,91.5919419 0,127.699682 0,167 C0,192.489617 5.76024648,216.643043 16.0723176,238.226088 Z M74.3950412,30.5487805 L257.568895,30.5487805 C258.12118,30.5487817 258.568896,30.1010659 258.568896,29.5487805 C258.568896,29.2230154 258.410217,28.9176685 258.143631,28.7304399 C230.871631,9.57681329 200.152516,0 165.986286,0 C131.82008,0 101.098114,9.57679959 73.8203876,28.7303988 C73.368415,29.0477787 73.2592891,29.6714592 73.5766567,30.1234405 C73.763876,30.39007 74.0692462,30.5487805 74.3950412,30.5487805 Z" id="path-2"></path>
    </defs>
    <g id="Logo" stroke="none" stroke-width="1" fill="none" fill-rule="evenodd">
        <g id="Group-5">
            <g id="Fill-1">
                <use fill="#3F4089" xlink:href="#path-2"></use>
                <use fill-opacity="0.2" fill="url(#radialGradient-1)" xlink:href="#path-2"></use>
            </g>
        </g>
    </g>
</svg>