<svg width="64" height="66" viewBox="0 0 64 66" fill="none" xmlns="http://www.w3.org/2000/svg">
<path d="M25.6608 16.7866H27.1608V15.2866H25.6608V16.7866ZM2 16.7866V15.2866H0.5V16.7866H2ZM25.6608 23.7685V25.2685H27.1608V23.7685H25.6608ZM25.6608 33.8534H27.1608V32.3534H25.6608V33.8534ZM25.6608 40.4474V41.9474H27.1608V40.4474H25.6608ZM19.0663 40.4474V38.9474H17.5664L17.5663 40.4473L19.0663 40.4474ZM8.98142 40.4474L10.4814 40.4473L10.4814 38.9474H8.98142V40.4474ZM2 40.4474H0.5V41.9474H2V40.4474ZM25.6608 15.2866H2V18.2866H25.6608V15.2866ZM27.1608 23.7685V16.7866H24.1608V23.7685H27.1608ZM25.6607 25.2685H25.6608V22.2685H25.6607V25.2685ZM22.1183 28.8109C22.1183 26.8545 23.7043 25.2685 25.6607 25.2685V22.2685C22.0474 22.2685 19.1183 25.1976 19.1183 28.8109H22.1183ZM25.6607 32.3534C23.7043 32.3534 22.1183 30.7674 22.1183 28.8109H19.1183C19.1183 32.4242 22.0474 35.3534 25.6607 35.3534V32.3534ZM25.6608 32.3534H25.6607V35.3534H25.6608V32.3534ZM27.1608 40.4474V33.8534H24.1608V40.4474H27.1608ZM19.0663 41.9474H25.6608V38.9474H19.0663V41.9474ZM17.5663 40.4473C17.5663 42.4037 15.9803 43.9896 14.0239 43.9896V46.9896C17.6371 46.9896 20.5662 44.0606 20.5663 40.4475L17.5663 40.4473ZM14.0239 43.9896C12.0675 43.9896 10.4815 42.4037 10.4814 40.4473L7.48142 40.4475C7.48158 44.0606 10.4107 46.9896 14.0239 46.9896V43.9896ZM2 41.9474H8.98142V38.9474H2V41.9474ZM0.5 16.7866V40.4474H3.5V16.7866H0.5Z" fill="#3F4089"/>
<path d="M62 24.8545L62.3882 26.3034L63.8371 25.9152L63.4488 24.4663L62 24.8545ZM55.8761 2L57.325 1.61177L56.9368 0.162883L55.4879 0.551111L55.8761 2ZM55.2556 26.6617L53.8067 27.05L54.1949 28.4988L55.6438 28.1106L55.2556 26.6617ZM45.5143 29.2719L45.9025 30.7208L47.3514 30.3325L46.9632 28.8837L45.5143 29.2719ZM39.1454 30.9784L37.6965 31.3666L38.0847 32.8155L39.5336 32.4273L39.1454 30.9784ZM37.4388 24.6094L38.8877 24.2212L38.4995 22.7723L37.0506 23.1605L37.4388 24.6094ZM34.8287 14.8681L35.2169 16.317L36.6658 15.9288L36.2776 14.4799L34.8287 14.8681ZM33.0216 8.12386L32.6333 6.67497L31.1844 7.0632L31.5727 8.51209L33.0216 8.12386ZM63.4488 24.4663L57.325 1.61177L54.4272 2.38823L60.5511 25.2428L63.4488 24.4663ZM55.6438 28.1106L62.3882 26.3034L61.6117 23.4057L54.8673 25.2128L55.6438 28.1106ZM49.4681 24.5451C51.3578 24.0388 53.3003 25.1602 53.8067 27.05L56.7044 26.2735C55.7692 22.7833 52.1818 20.7122 48.6916 21.6473L49.4681 24.5451ZM46.9632 28.8837C46.4568 26.9939 47.5783 25.0515 49.4681 24.5451L48.6916 21.6473C45.2015 22.5825 43.1303 26.1699 44.0654 29.6601L46.9632 28.8837ZM39.5336 32.4273L45.9025 30.7208L45.126 27.823L38.7572 29.5295L39.5336 32.4273ZM35.99 24.9976L37.6965 31.3666L40.5943 30.5902L38.8877 24.2212L35.99 24.9976ZM37.0506 23.1605C37.0506 23.1605 37.0505 23.1605 37.0505 23.1606C37.0504 23.1606 37.0504 23.1606 37.0503 23.1606L37.8268 26.0584C37.8268 26.0584 37.8269 26.0584 37.8269 26.0583C37.827 26.0583 37.827 26.0583 37.8271 26.0583L37.0506 23.1605ZM37.0503 23.1606C35.1605 23.667 33.2181 22.5455 32.7117 20.6557L29.8139 21.4322C30.7491 24.9223 34.3366 26.9936 37.8268 26.0584L37.0503 23.1606ZM32.7117 20.6557C32.2054 18.7659 33.3268 16.8235 35.2166 16.3171L34.4402 13.4193C30.95 14.3545 28.8788 17.942 29.8139 21.4322L32.7117 20.6557ZM35.2166 16.3171C35.2166 16.3171 35.2166 16.3171 35.2166 16.3171C35.2166 16.3171 35.2166 16.3171 35.2166 16.3171L35.2166 16.3171C35.2166 16.3171 35.2166 16.3171 35.2166 16.3171C35.2166 16.3171 35.2166 16.3171 35.2166 16.3171L35.2166 16.3171C35.2166 16.3171 35.2166 16.3171 35.2166 16.3171C35.2166 16.3171 35.2166 16.3171 35.2166 16.3171L35.2166 16.3171C35.2166 16.3171 35.2166 16.3171 35.2166 16.3171C35.2166 16.3171 35.2166 16.3171 35.2166 16.3171L35.2166 16.3171C35.2166 16.3171 35.2166 16.3171 35.2166 16.3171C35.2166 16.3171 35.2166 16.3171 35.2166 16.3171L35.2166 16.3171C35.2166 16.3171 35.2166 16.3171 35.2166 16.3171C35.2167 16.3171 35.2167 16.3171 35.2167 16.3171L35.2167 16.3171C35.2167 16.3171 35.2167 16.3171 35.2167 16.3171C35.2167 16.3171 35.2167 16.3171 35.2167 16.3171L35.2167 16.3171C35.2167 16.3171 35.2167 16.3171 35.2167 16.3171C35.2167 16.3171 35.2167 16.3171 35.2167 16.3171L35.2167 16.3171C35.2167 16.3171 35.2167 16.3171 35.2167 16.3171C35.2167 16.3171 35.2167 16.3171 35.2167 16.3171L35.2167 16.3171C35.2167 16.3171 35.2167 16.3171 35.2167 16.3171C35.2167 16.3171 35.2167 16.3171 35.2167 16.3171L35.2167 16.3171C35.2167 16.3171 35.2167 16.3171 35.2167 16.3171C35.2167 16.3171 35.2167 16.3171 35.2167 16.3171L35.2167 16.3171C35.2167 16.3171 35.2167 16.3171 35.2167 16.3171C35.2167 16.3171 35.2167 16.3171 35.2167 16.3171L35.2167 16.3171C35.2167 16.3171 35.2167 16.3171 35.2167 16.3171C35.2167 16.3171 35.2167 16.3171 35.2167 16.3171C35.2167 16.3171 35.2167 16.3171 35.2167 16.3171L35.2167 16.3171C35.2167 16.3171 35.2167 16.3171 35.2167 16.3171C35.2167 16.3171 35.2167 16.3171 35.2167 16.3171L35.2167 16.3171C35.2167 16.3171 35.2167 16.3171 35.2167 16.3171C35.2167 16.3171 35.2167 16.3171 35.2167 16.3171L35.2167 16.3171C35.2167 16.3171 35.2167 16.3171 35.2167 16.3171C35.2167 16.3171 35.2167 16.3171 35.2167 16.3171L35.2167 16.3171C35.2167 16.3171 35.2167 16.3171 35.2167 16.3171C35.2167 16.3171 35.2167 16.3171 35.2167 16.3171L35.2167 16.3171C35.2167 16.3171 35.2167 16.3171 35.2167 16.3171C35.2167 16.3171 35.2167 16.3171 35.2167 16.3171L35.2167 16.3171C35.2167 16.3171 35.2167 16.3171 35.2167 16.3171C35.2167 16.3171 35.2167 16.3171 35.2167 16.3171L35.2167 16.3171C35.2167 16.3171 35.2167 16.3171 35.2167 16.3171C35.2167 16.3171 35.2167 16.3171 35.2167 16.3171C35.2167 16.3171 35.2167 16.3171 35.2167 16.3171L35.2167 16.3171C35.2167 16.3171 35.2167 16.3171 35.2167 16.3171C35.2167 16.3171 35.2167 16.3171 35.2167 16.3171L35.2167 16.3171C35.2167 16.3171 35.2167 16.3171 35.2167 16.3171C35.2167 16.3171 35.2167 16.3171 35.2167 16.3171L35.2167 16.3171C35.2167 16.3171 35.2167 16.3171 35.2167 16.3171C35.2167 16.3171 35.2167 16.3171 35.2167 16.3171L35.2167 16.3171C35.2167 16.3171 35.2167 16.3171 35.2168 16.3171C35.2168 16.3171 35.2168 16.3171 35.2168 16.3171L35.2168 16.3171C35.2168 16.3171 35.2168 16.3171 35.2168 16.3171C35.2168 16.3171 35.2168 16.3171 35.2168 16.3171L35.2168 16.3171L35.2168 16.3171C35.2168 16.3171 35.2168 16.3171 35.2168 16.3171C35.2168 16.3171 35.2168 16.3171 35.2168 16.3171L35.2168 16.3171C35.2168 16.3171 35.2168 16.3171 35.2168 16.3171C35.2168 16.3171 35.2168 16.3171 35.2168 16.3171L35.2168 16.3171C35.2168 16.3171 35.2168 16.3171 35.2168 16.3171C35.2168 16.3171 35.2168 16.3171 35.2168 16.3171L35.2168 16.3171C35.2168 16.3171 35.2168 16.3171 35.2168 16.3171C35.2168 16.3171 35.2168 16.3171 35.2168 16.3171L35.2168 16.3171C35.2168 16.3171 35.2168 16.3171 35.2168 16.3171C35.2168 16.317 35.2168 16.317 35.2168 16.317L35.2168 16.317C35.2168 16.317 35.2168 16.317 35.2168 16.317C35.2168 16.317 35.2168 16.317 35.2168 16.317C35.2168 16.317 35.2168 16.317 35.2168 16.317L35.2168 16.317C35.2168 16.317 35.2168 16.317 35.2168 16.317C35.2168 16.317 35.2168 16.317 35.2168 16.317L35.2168 16.317C35.2168 16.317 35.2168 16.317 35.2168 16.317C35.2168 16.317 35.2168 16.317 35.2168 16.317L35.2168 16.317C35.2168 16.317 35.2168 16.317 35.2168 16.317C35.2168 16.317 35.2168 16.317 35.2168 16.317L35.2168 16.317C35.2168 16.317 35.2168 16.317 35.2168 16.317C35.2168 16.317 35.2168 16.317 35.2168 16.317L35.2168 16.317C35.2168 16.317 35.2168 16.317 35.2168 16.317C35.2168 16.317 35.2168 16.317 35.2168 16.317L35.2168 16.317C35.2168 16.317 35.2168 16.317 35.2168 16.317C35.2168 16.317 35.2168 16.317 35.2168 16.317L35.2168 16.317C35.2168 16.317 35.2168 16.317 35.2168 16.317C35.2168 16.317 35.2168 16.317 35.2168 16.317C35.2168 16.317 35.2168 16.317 35.2168 16.317L35.2168 16.317C35.2168 16.317 35.2168 16.317 35.2168 16.317C35.2168 16.317 35.2168 16.317 35.2168 16.317L35.2168 16.317C35.2168 16.317 35.2168 16.317 35.2168 16.317C35.2168 16.317 35.2168 16.317 35.2168 16.317L35.2168 16.317C35.2168 16.317 35.2168 16.317 35.2169 16.317C35.2169 16.317 35.2169 16.317 35.2169 16.317L35.2169 16.317C35.2169 16.317 35.2169 16.317 35.2169 16.317C35.2169 16.317 35.2169 16.317 35.2169 16.317L35.2169 16.317C35.2169 16.317 35.2169 16.317 35.2169 16.317C35.2169 16.317 35.2169 16.317 35.2169 16.317L35.2169 16.317C35.2169 16.317 35.2169 16.317 35.2169 16.317C35.2169 16.317 35.2169 16.317 35.2169 16.317L35.2169 16.317C35.2169 16.317 35.2169 16.317 35.2169 16.317C35.2169 16.317 35.2169 16.317 35.2169 16.317L35.2169 16.317C35.2169 16.317 35.2169 16.317 35.2169 16.317C35.2169 16.317 35.2169 16.317 35.2169 16.317L35.2169 16.317C35.2169 16.317 35.2169 16.317 35.2169 16.317C35.2169 16.317 35.2169 16.317 35.2169 16.317L35.2169 16.317C35.2169 16.317 35.2169 16.317 35.2169 16.317C35.2169 16.317 35.2169 16.317 35.2169 16.317L35.2169 16.317C35.2169 16.317 35.2169 16.317 35.2169 16.317C35.2169 16.317 35.2169 16.317 35.2169 16.317L35.2169 16.317C35.2169 16.317 35.2169 16.317 35.2169 16.317C35.2169 16.317 35.2169 16.317 35.2169 16.317L34.4404 13.4192C34.4404 13.4192 34.4404 13.4192 34.4404 13.4192C34.4404 13.4192 34.4404 13.4192 34.4404 13.4192L34.4404 13.4192C34.4404 13.4192 34.4404 13.4192 34.4404 13.4192C34.4404 13.4192 34.4404 13.4192 34.4404 13.4192L34.4404 13.4192C34.4404 13.4192 34.4404 13.4192 34.4404 13.4192C34.4404 13.4192 34.4404 13.4192 34.4404 13.4192L34.4404 13.4192C34.4404 13.4192 34.4404 13.4192 34.4404 13.4192C34.4404 13.4192 34.4404 13.4192 34.4404 13.4192L34.4404 13.4192C34.4404 13.4192 34.4404 13.4192 34.4404 13.4192C34.4404 13.4192 34.4404 13.4192 34.4404 13.4192L34.4404 13.4192C34.4404 13.4192 34.4404 13.4192 34.4404 13.4192C34.4404 13.4193 34.4404 13.4193 34.4404 13.4193L34.4404 13.4193C34.4404 13.4193 34.4404 13.4193 34.4404 13.4193C34.4404 13.4193 34.4404 13.4193 34.4404 13.4193L34.4404 13.4193C34.4404 13.4193 34.4404 13.4193 34.4404 13.4193C34.4404 13.4193 34.4404 13.4193 34.4404 13.4193L34.4404 13.4193C34.4404 13.4193 34.4404 13.4193 34.4404 13.4193C34.4404 13.4193 34.4404 13.4193 34.4404 13.4193L34.4404 13.4193C34.4404 13.4193 34.4404 13.4193 34.4404 13.4193C34.4404 13.4193 34.4404 13.4193 34.4404 13.4193L34.4404 13.4193C34.4404 13.4193 34.4404 13.4193 34.4404 13.4193C34.4404 13.4193 34.4404 13.4193 34.4404 13.4193L34.4404 13.4193C34.4404 13.4193 34.4404 13.4193 34.4404 13.4193C34.4404 13.4193 34.4404 13.4193 34.4404 13.4193L34.4404 13.4193C34.4404 13.4193 34.4404 13.4193 34.4404 13.4193C34.4404 13.4193 34.4404 13.4193 34.4404 13.4193C34.4404 13.4193 34.4404 13.4193 34.4404 13.4193L34.4404 13.4193C34.4404 13.4193 34.4404 13.4193 34.4404 13.4193C34.4404 13.4193 34.4404 13.4193 34.4404 13.4193L34.4404 13.4193C34.4404 13.4193 34.4404 13.4193 34.4404 13.4193C34.4404 13.4193 34.4404 13.4193 34.4404 13.4193L34.4404 13.4193C34.4404 13.4193 34.4404 13.4193 34.4404 13.4193C34.4404 13.4193 34.4404 13.4193 34.4404 13.4193L34.4404 13.4193C34.4404 13.4193 34.4404 13.4193 34.4404 13.4193C34.4404 13.4193 34.4404 13.4193 34.4404 13.4193L34.4403 13.4193C34.4403 13.4193 34.4403 13.4193 34.4403 13.4193C34.4403 13.4193 34.4403 13.4193 34.4403 13.4193L34.4403 13.4193C34.4403 13.4193 34.4403 13.4193 34.4403 13.4193C34.4403 13.4193 34.4403 13.4193 34.4403 13.4193L34.4403 13.4193C34.4403 13.4193 34.4403 13.4193 34.4403 13.4193C34.4403 13.4193 34.4403 13.4193 34.4403 13.4193C34.4403 13.4193 34.4403 13.4193 34.4403 13.4193L34.4403 13.4193C34.4403 13.4193 34.4403 13.4193 34.4403 13.4193C34.4403 13.4193 34.4403 13.4193 34.4403 13.4193L34.4403 13.4193C34.4403 13.4193 34.4403 13.4193 34.4403 13.4193C34.4403 13.4193 34.4403 13.4193 34.4403 13.4193L34.4403 13.4193C34.4403 13.4193 34.4403 13.4193 34.4403 13.4193C34.4403 13.4193 34.4403 13.4193 34.4403 13.4193L34.4403 13.4193C34.4403 13.4193 34.4403 13.4193 34.4403 13.4193C34.4403 13.4193 34.4403 13.4193 34.4403 13.4193L34.4403 13.4193C34.4403 13.4193 34.4403 13.4193 34.4403 13.4193C34.4403 13.4193 34.4403 13.4193 34.4403 13.4193L34.4403 13.4193L34.4403 13.4193C34.4403 13.4193 34.4403 13.4193 34.4403 13.4193C34.4403 13.4193 34.4403 13.4193 34.4403 13.4193L34.4403 13.4193C34.4403 13.4193 34.4403 13.4193 34.4403 13.4193C34.4403 13.4193 34.4403 13.4193 34.4403 13.4193L34.4403 13.4193C34.4403 13.4193 34.4403 13.4193 34.4403 13.4193C34.4403 13.4193 34.4403 13.4193 34.4403 13.4193L34.4403 13.4193C34.4403 13.4193 34.4403 13.4193 34.4403 13.4193C34.4403 13.4193 34.4403 13.4193 34.4403 13.4193L34.4403 13.4193C34.4403 13.4193 34.4403 13.4193 34.4403 13.4193C34.4403 13.4193 34.4403 13.4193 34.4403 13.4193L34.4403 13.4193C34.4403 13.4193 34.4403 13.4193 34.4403 13.4193C34.4403 13.4193 34.4403 13.4193 34.4403 13.4193C34.4403 13.4193 34.4403 13.4193 34.4403 13.4193L34.4403 13.4193C34.4403 13.4193 34.4403 13.4193 34.4403 13.4193C34.4403 13.4193 34.4403 13.4193 34.4403 13.4193L34.4403 13.4193C34.4403 13.4193 34.4403 13.4193 34.4403 13.4193C34.4403 13.4193 34.4403 13.4193 34.4403 13.4193L34.4403 13.4193C34.4403 13.4193 34.4403 13.4193 34.4403 13.4193C34.4403 13.4193 34.4403 13.4193 34.4403 13.4193L34.4403 13.4193C34.4403 13.4193 34.4403 13.4193 34.4402 13.4193C34.4402 13.4193 34.4402 13.4193 34.4402 13.4193L34.4402 13.4193C34.4402 13.4193 34.4402 13.4193 34.4402 13.4193C34.4402 13.4193 34.4402 13.4193 34.4402 13.4193L34.4402 13.4193C34.4402 13.4193 34.4402 13.4193 34.4402 13.4193C34.4402 13.4193 34.4402 13.4193 34.4402 13.4193L34.4402 13.4193C34.4402 13.4193 34.4402 13.4193 34.4402 13.4193C34.4402 13.4193 34.4402 13.4193 34.4402 13.4193C34.4402 13.4193 34.4402 13.4193 34.4402 13.4193L34.4402 13.4193C34.4402 13.4193 34.4402 13.4193 34.4402 13.4193C34.4402 13.4193 34.4402 13.4193 34.4402 13.4193L34.4402 13.4193C34.4402 13.4193 34.4402 13.4193 34.4402 13.4193C34.4402 13.4193 34.4402 13.4193 34.4402 13.4193L34.4402 13.4193C34.4402 13.4193 34.4402 13.4193 34.4402 13.4193C34.4402 13.4193 34.4402 13.4193 34.4402 13.4193L34.4402 13.4193C34.4402 13.4193 34.4402 13.4193 34.4402 13.4193C34.4402 13.4193 34.4402 13.4193 34.4402 13.4193L34.4402 13.4193C34.4402 13.4193 34.4402 13.4193 34.4402 13.4193C34.4402 13.4193 34.4402 13.4193 34.4402 13.4193L34.4402 13.4193C34.4402 13.4193 34.4402 13.4193 34.4402 13.4193C34.4402 13.4193 34.4402 13.4193 34.4402 13.4193L34.4402 13.4193C34.4402 13.4193 34.4402 13.4193 34.4402 13.4193C34.4402 13.4193 34.4402 13.4193 34.4402 13.4193L34.4402 13.4193C34.4402 13.4193 34.4402 13.4193 34.4402 13.4193C34.4402 13.4193 34.4402 13.4193 34.4402 13.4193L34.4402 13.4193C34.4402 13.4193 34.4402 13.4193 34.4402 13.4193C34.4402 13.4193 34.4402 13.4193 34.4402 13.4193L34.4402 13.4193C34.4402 13.4193 34.4402 13.4193 34.4402 13.4193C34.4402 13.4193 34.4402 13.4193 34.4402 13.4193L34.4402 13.4193C34.4402 13.4193 34.4402 13.4193 34.4402 13.4193C34.4402 13.4193 34.4402 13.4193 34.4402 13.4193L34.4402 13.4193C34.4402 13.4193 34.4402 13.4193 34.4402 13.4193C34.4402 13.4193 34.4402 13.4193 34.4402 13.4193L35.2166 16.3171ZM31.5727 8.51209L33.3798 15.2564L36.2776 14.4799L34.4704 7.73563L31.5727 8.51209ZM55.4879 0.551111L32.6333 6.67497L33.4098 9.57275L56.2643 3.44889L55.4879 0.551111Z" fill="#3F4089"/>
<path d="M25.6613 64.1084L24.1613 64.1084L24.1613 65.6084L25.6613 65.6084L25.6613 64.1084ZM49.322 64.1084L49.322 65.6084L50.822 65.6084L50.822 64.1084L49.322 64.1084ZM25.6613 57.1266L25.6613 55.6266L24.1613 55.6266L24.1613 57.1266L25.6613 57.1266ZM25.6614 57.1266L25.6614 55.6266L25.6614 57.1266ZM25.6614 47.0416L25.6614 45.5416L25.6614 47.0416ZM25.6613 47.0416L24.1613 47.0416L24.1613 48.5416L25.6613 48.5416L25.6613 47.0416ZM25.6613 40.4476L25.6613 38.9476L24.1613 38.9476L24.1613 40.4476L25.6613 40.4476ZM32.2546 40.4476L32.2546 41.9476L33.7545 41.9476L33.7546 40.4477L32.2546 40.4476ZM42.3395 40.4476L40.8395 40.4477L40.8396 41.9476L42.3395 41.9476L42.3395 40.4476ZM49.322 40.4476L50.822 40.4476L50.822 38.9476L49.322 38.9476L49.322 40.4476ZM25.6613 65.6084L49.322 65.6084L49.322 62.6084L25.6613 62.6084L25.6613 65.6084ZM24.1613 57.1266L24.1613 64.1084L27.1613 64.1084L27.1613 57.1266L24.1613 57.1266ZM25.6614 55.6266L25.6613 55.6266L25.6613 58.6266L25.6614 58.6266L25.6614 55.6266ZM29.2039 52.0841C29.2039 54.0405 27.6179 55.6266 25.6614 55.6266L25.6614 58.6266C29.2747 58.6266 32.2039 55.6974 32.2039 52.0841L29.2039 52.0841ZM25.6614 48.5416C27.6179 48.5416 29.2039 50.1276 29.2039 52.0841L32.2039 52.0841C32.2039 48.4708 29.2747 45.5416 25.6614 45.5416L25.6614 48.5416ZM25.6613 48.5416L25.6614 48.5416L25.6614 45.5416L25.6613 45.5416L25.6613 48.5416ZM24.1613 40.4476L24.1613 47.0416L27.1613 47.0416L27.1613 40.4476L24.1613 40.4476ZM32.2546 38.9476L25.6613 38.9476L25.6613 41.9476L32.2546 41.9476L32.2546 38.9476ZM33.7546 40.4477C33.7547 38.4913 35.3407 36.9054 37.2971 36.9054L37.2971 33.9054C33.6838 33.9054 30.7547 36.8344 30.7546 40.4476L33.7546 40.4477ZM37.2971 36.9054C39.2535 36.9054 40.8394 38.4913 40.8395 40.4477L43.8395 40.4476C43.8394 36.8344 40.9103 33.9054 37.2971 33.9054L37.2971 36.9054ZM49.322 38.9476L42.3395 38.9476L42.3395 41.9476L49.322 41.9476L49.322 38.9476ZM50.822 64.1084L50.822 40.4476L47.822 40.4476L47.822 64.1084L50.822 64.1084Z" fill="#3F4089"/>
<path d="M2 40.4476L2 38.9476L0.5 38.9476L0.5 40.4476L2 40.4476ZM2 64.1084L0.5 64.1084L0.5 65.6084L2 65.6084L2 64.1084ZM8.98142 40.4476L10.4814 40.4476L10.4814 38.9476L8.98142 38.9476L8.98142 40.4476ZM8.98142 40.4478L10.4814 40.4478L8.98142 40.4478ZM19.0663 40.4478L20.5663 40.4478L19.0663 40.4478ZM19.0663 40.4476L19.0663 38.9476L17.5663 38.9476L17.5663 40.4476L19.0663 40.4476ZM25.6608 40.4476L27.1608 40.4476L27.1608 38.9476L25.6608 38.9476L25.6608 40.4476ZM25.6608 47.0416L24.1608 47.0416L24.1608 48.5416L25.6608 48.5416L25.6608 47.0416ZM25.6608 57.1266L25.6608 55.6266L24.1608 55.6266L24.1608 57.1266L25.6608 57.1266ZM25.6608 64.1084L25.6608 65.6084L27.1608 65.6084L27.1608 64.1084L25.6608 64.1084ZM0.5 40.4476L0.5 64.1084L3.5 64.1084L3.5 40.4476L0.5 40.4476ZM8.98142 38.9476L2 38.9476L2 41.9476L8.98142 41.9476L8.98142 38.9476ZM10.4814 40.4478L10.4814 40.4476L7.48142 40.4476L7.48142 40.4478L10.4814 40.4478ZM14.0239 43.9903C12.0674 43.9903 10.4814 42.4043 10.4814 40.4478L7.48142 40.4478C7.48142 44.0611 10.4106 46.9903 14.0239 46.9903L14.0239 43.9903ZM17.5663 40.4478C17.5663 42.4043 15.9803 43.9903 14.0239 43.9903L14.0239 46.9903C17.6372 46.9903 20.5663 44.0611 20.5663 40.4478L17.5663 40.4478ZM17.5663 40.4476L17.5663 40.4478L20.5663 40.4478L20.5663 40.4476L17.5663 40.4476ZM25.6608 38.9476L19.0663 38.9476L19.0663 41.9476L25.6608 41.9476L25.6608 38.9476ZM27.1608 47.0416L27.1608 40.4476L24.1608 40.4476L24.1608 47.0416L27.1608 47.0416ZM25.6608 48.5416C27.6172 48.5416 29.2032 50.1277 29.2032 52.0841L32.2032 52.0841C32.2032 48.4708 29.2741 45.5417 25.6608 45.5416L25.6608 48.5416ZM29.2032 52.0841C29.2032 54.0405 27.6172 55.6265 25.6608 55.6266L25.6608 58.6266C29.2741 58.6265 32.2032 55.6974 32.2032 52.0841L29.2032 52.0841ZM27.1608 64.1084L27.1608 57.1266L24.1608 57.1266L24.1608 64.1084L27.1608 64.1084ZM2 65.6084L25.6608 65.6084L25.6608 62.6084L2 62.6084L2 65.6084Z" fill="#3F4089"/>
</svg>
