<svg width="56" height="53" viewBox="0 0 56 53" fill="none" xmlns="http://www.w3.org/2000/svg">
<circle cx="38.5221" cy="7.838" r="6.338" stroke="#3F4089" stroke-width="3"/>
<path d="M22.8058 35.5052C22.8058 26.7881 29.8724 19.7214 38.5896 19.7214C47.3067 19.7214 54.3734 26.7881 54.3734 35.5052V42.0406C54.3734 42.8566 53.7119 43.518 52.896 43.518H24.2832C23.4672 43.518 22.8058 42.8566 22.8058 42.0406V35.5052Z" stroke="#3F4089" stroke-width="3"/>
<circle cx="17.2163" cy="15.8199" r="6.338" stroke="#3F4089" stroke-width="3"/>
<path d="M1.5 43.4872C1.5 34.77 8.56665 27.7034 17.2838 27.7034C26.0009 27.7034 33.0676 34.77 33.0676 43.4872V50.0225C33.0676 50.8385 32.4061 51.4999 31.5902 51.4999H2.9774C2.16145 51.4999 1.5 50.8385 1.5 50.0225V43.4872Z" fill="white" stroke="#3F4089" stroke-width="3"/>
</svg>
